<svg xmlns="http://www.w3.org/2000/svg" width="192" height="192" viewBox="0 0 192 192">
  <rect width="192" height="192" rx="24" fill="#0a0a0f"/>
  <g transform="translate(24, 24)">
    <!-- 4x4 grid of cells -->
    <rect x="0" y="0" width="30" height="30" rx="4" fill="#2a2a35"/>
    <rect x="36" y="0" width="30" height="30" rx="4" fill="#ff3366"/>
    <rect x="72" y="0" width="30" height="30" rx="4" fill="#2a2a35"/>
    <rect x="108" y="0" width="30" height="30" rx="4" fill="#ff3366"/>
    <rect x="0" y="36" width="30" height="30" rx="4" fill="#00ccff"/>
    <rect x="36" y="36" width="30" height="30" rx="4" fill="#2a2a35"/>
    <rect x="72" y="36" width="30" height="30" rx="4" fill="#2a2a35"/>
    <rect x="108" y="36" width="30" height="30" rx="4" fill="#00ccff"/>
    <rect x="0" y="72" width="30" height="30" rx="4" fill="#2a2a35"/>
    <rect x="36" y="72" width="30" height="30" rx="4" fill="#6633ff"/>
    <rect x="72" y="72" width="30" height="30" rx="4" fill="#6633ff"/>
    <rect x="108" y="72" width="30" height="30" rx="4" fill="#2a2a35"/>
    <rect x="0" y="108" width="30" height="30" rx="4" fill="#00ff88"/>
    <rect x="36" y="108" width="30" height="30" rx="4" fill="#2a2a35"/>
    <rect x="72" y="108" width="30" height="30" rx="4" fill="#00ff88"/>
    <rect x="108" y="108" width="30" height="30" rx="4" fill="#2a2a35"/>
  </g>
</svg>
